<svg width="34" height="33" viewBox="0 0 34 33" fill="none" xmlns="http://www.w3.org/2000/svg">
<path d="M17 0C7.61129 0 0 7.3873 0 16.5C0 25.6127 7.61129 33 17 33C26.3887 33 34 25.6127 34 16.5C34 7.3873 26.3887 0 17 0ZM22.8756 17.3746L14.3756 22.5309C14.2036 22.6351 14.0081 22.6875 13.8125 22.6875C13.6353 22.6875 13.4579 22.6447 13.2973 22.5581C12.9596 22.3763 12.75 22.0314 12.75 21.6562V11.3438C12.75 10.9686 12.9596 10.6237 13.2973 10.4419C13.6351 10.2591 14.048 10.2702 14.3756 10.4691L22.8756 15.6254C23.1861 15.8142 23.375 16.1445 23.375 16.5C23.375 16.8555 23.1861 17.1858 22.8756 17.3746Z" fill="white"/>
</svg>
